<svg xmlns="http://www.w3.org/2000/svg" width="805" height="600"><rect width="805" height="600" x="0" y="0" fill="#FFFFFF" id="background"/><g id="viz"><clipPath id="serieClipPath"><rect x="-50" y="-10" width="805" height="600"/></clipPath><g transform="translate(0,0)"><g transform="translate(50,10)" clip-path="url(#serieClipPath)"><g id="axis"><g transform="translate(0,570)" fill="none" font-size="10" font-family="sans-serif" text-anchor="middle"><path class="domain" stroke="currentColor" d="M0,6V0H740V6"/><g class="tick" opacity="1" transform="translate(0,0)"><line stroke="currentColor" y2="6"/><text fill="currentColor" y="9" dy="0.71em">Mon 13</text></g><g class="tick" opacity="1" transform="translate(74,0)"><line stroke="currentColor" y2="6"/><text fill="currentColor" y="9" dy="0.71em">Tue 14</text></g><g class="tick" opacity="1" transform="translate(148,0)"><line stroke="currentColor" y2="6"/><text fill="currentColor" y="9" dy="0.71em">Wed 15</text></g><g class="tick" opacity="1" transform="translate(222,0)"><line stroke="currentColor" y2="6"/><text fill="currentColor" y="9" dy="0.71em">Thu 16</text></g><g class="tick" opacity="1" transform="translate(296,0)"><line stroke="currentColor" y2="6"/><text fill="currentColor" y="9" dy="0.71em">Fri 17</text></g><g class="tick" opacity="1" transform="translate(370,0)"><line stroke="currentColor" y2="6"/><text fill="currentColor" y="9" dy="0.71em">Sat 18</text></g><g class="tick" opacity="1" transform="translate(444,0)"><line stroke="currentColor" y2="6"/><text fill="currentColor" y="9" dy="0.71em">Apr 19</text></g><g class="tick" opacity="1" transform="translate(518,0)"><line stroke="currentColor" y2="6"/><text fill="currentColor" y="9" dy="0.71em">Mon 20</text></g><g class="tick" opacity="1" transform="translate(592,0)"><line stroke="currentColor" y2="6"/><text fill="currentColor" y="9" dy="0.71em">Tue 21</text></g><g class="tick" opacity="1" transform="translate(666,0)"><line stroke="currentColor" y2="6"/><text fill="currentColor" y="9" dy="0.71em">Wed 22</text></g><g class="tick" opacity="1" transform="translate(740,0)"><line stroke="currentColor" y2="6"/><text fill="currentColor" y="9" dy="0.71em">Thu 23</text></g><text x="740" dy="-5" text-anchor="end" style="font-family: Arial, sans-serif; font-size: 12px; fill: rgb(123, 123, 123); font-weight: bold;">Fecha</text></g><g transform="translate(0,0)" fill="none" font-size="10" font-family="sans-serif" text-anchor="end"><path class="domain" stroke="currentColor" d="M0,570V0"/><g class="tick" opacity="1" transform="translate(0,570)"><line stroke="currentColor" x2="-6"/><text fill="currentColor" x="-9" dy="0.32em">0</text></g><g class="tick" opacity="1" transform="translate(0,498.75)"><line stroke="currentColor" x2="-6"/><text fill="currentColor" x="-9" dy="0.32em">200</text></g><g class="tick" opacity="1" transform="translate(0,427.5)"><line stroke="currentColor" x2="-6"/><text fill="currentColor" x="-9" dy="0.32em">400</text></g><g class="tick" opacity="1" transform="translate(0,356.25)"><line stroke="currentColor" x2="-6"/><text fill="currentColor" x="-9" dy="0.32em">600</text></g><g class="tick" opacity="1" transform="translate(0,285)"><line stroke="currentColor" x2="-6"/><text fill="currentColor" x="-9" dy="0.32em">800</text></g><g class="tick" opacity="1" transform="translate(0,213.75)"><line stroke="currentColor" x2="-6"/><text fill="currentColor" x="-9" dy="0.32em">1,000</text></g><g class="tick" opacity="1" transform="translate(0,142.5)"><line stroke="currentColor" x2="-6"/><text fill="currentColor" x="-9" dy="0.32em">1,200</text></g><g class="tick" opacity="1" transform="translate(0,71.25)"><line stroke="currentColor" x2="-6"/><text fill="currentColor" x="-9" dy="0.32em">1,400</text></g><g class="tick" opacity="1" transform="translate(0,0)"><line stroke="currentColor" x2="-6"/><text fill="currentColor" x="-9" dy="0.32em">1,600</text></g><text x="4" text-anchor="start" dominant-baseline="hanging" style="font-family: Arial, sans-serif; font-size: 12px; fill: rgb(123, 123, 123); font-weight: bold;">Calorias</text></g></g><g id="viz"><g><path d="M24.666666666666668,427.5C32.375,427.5,32.375,267.1875,40.083333333333336,267.1875C46.25,267.1875,46.25,463.125,52.416666666666664,463.125C60.51041666666667,463.125,60.51041666666667,320.625,68.60416666666667,320.625C69.76041666666667,320.625,69.76041666666667,445.3125,70.91666666666667,445.3125C85.5625,445.3125,85.5625,445.3125,100.20833333333333,445.3125C107.91666666666666,445.3125,107.91666666666666,249.375,115.625,249.375C122.5625,249.375,122.5625,480.9375,129.5,480.9375C134.89583333333331,480.9375,134.89583333333331,285,140.29166666666666,285C143.375,285,143.375,463.125,146.45833333333331,463.125C159.17708333333331,463.125,159.17708333333331,409.6875,171.89583333333334,409.6875C179.98958333333331,409.6875,179.98958333333331,285,188.08333333333331,285C193.47916666666666,285,193.47916666666666,527.25,198.875,527.25C205.04166666666666,527.25,205.04166666666666,338.4375,211.20833333333331,338.4375C228.9375,338.4375,228.9375,391.875,246.66666666666666,391.875C255.14583333333331,391.875,255.14583333333331,231.5625,263.625,231.5625C269.79166666666663,231.5625,269.79166666666663,445.3125,275.9583333333333,445.3125C280.19791666666663,445.3125,280.19791666666663,527.25,284.4375,527.25C287.13541666666663,527.25,287.13541666666663,249.375,289.8333333333333,249.375C292.53125,249.375,292.53125,445.3125,295.2291666666667,445.3125C307.9479166666667,445.3125,307.9479166666667,488.0625,320.6666666666667,488.0625C323.75,488.0625,323.75,484.85625,326.8333333333333,484.85625C334.54166666666663,484.85625,334.54166666666663,441.75,342.25,441.75C354.58333333333337,441.75,354.58333333333337,330.6,366.9166666666667,330.6C389.65625,330.6,389.65625,374.0625,412.3958333333333,374.0625C417.79166666666663,374.0625,417.79166666666663,495.1875,423.1875,495.1875C426.39930555555554,495.1875,426.39930555555554,413.25,429.61111111111114,413.25C432.18055555555554,413.25,432.18055555555554,545.0625,434.75,545.0625C438.60416666666663,545.0625,438.60416666666663,178.125,442.4583333333333,178.125C460.1875,178.125,460.1875,541.5,477.9166666666667,541.5C482.5416666666667,541.5,482.5416666666667,0,487.1666666666667,0C494.1041666666667,0,494.1041666666667,480.9375,501.0416666666667,480.9375C505.6666666666667,480.9375,505.6666666666667,370.5,510.2916666666667,370.5C527.25,370.5,527.25,416.8125,544.2083333333334,416.8125C548.4479166666667,416.8125,548.4479166666667,541.5,552.6875,541.5C557.6979166666666,541.5,557.6979166666666,352.6875,562.7083333333333,352.6875C567.71875,352.6875,567.71875,498.75,572.7291666666666,498.75C578.8958333333333,498.75,578.8958333333333,409.6875,585.0625,409.6875C605.1041666666667,409.6875,605.1041666666667,505.875,625.1458333333334,505.875C632.0833333333334,505.875,632.0833333333334,178.125,639.0208333333334,178.125C649.0416666666667,178.125,649.0416666666667,183.46875,659.0625,183.46875C677.1770833333333,183.46875,677.1770833333333,541.5,695.2916666666666,541.5" stroke="#1f77b4" fill="none"/><text font-family="sans-serif" font-size="10" class="labels" x="487.1666666666667" y="0" dx="0" dy="-4" text-anchor="middle"/></g></g></g><text y="4" x="4" style="font-family: Arial, sans-serif; font-size: 12px; fill: black; font-weight: bold; dominant-baseline: hanging;"/></g><g id="grid"><rect x="0" y="0" width="805" height="600" fill="none" stroke="#ccc"/></g></g></svg>